<?xml version="1.0" encoding="utf-8"?>
<!-- Generator: Adobe Illustrator 25.1.0, SVG Export Plug-In . SVG Version: 6.00 Build 0)  -->
<svg version="1.1" id="Calque_1" xmlns="http://www.w3.org/2000/svg" xmlns:xlink="http://www.w3.org/1999/xlink" x="0px" y="0px"
	 viewBox="0 0 1000 1000" style="enable-background:new 0 0 1000 1000;" xml:space="preserve">
<style type="text/css">
	.st0{fill:#B16D52;stroke:#951B2A;stroke-width:9;stroke-miterlimit:10;}
	.st1{fill:#974745;stroke:#951B2A;stroke-width:5;stroke-miterlimit:10;}
	.st2{opacity:0.22;fill:#682A52;}
</style>
<path class="st0" d="M863.95,491.44c0-51.19-1.13-105.01-20.93-148.79c-18.61-41.13-54.87-72.76-86.91-103.74
	c-22.28-21.57-38.69-39.95-76.64-55.7c-41.42-17.2-83.74-34.69-130.35-39.65c-3.18-0.34-5.79,2.49-5.2,5.63
	c0.24,1.29,4.11,13.08,4.36,14.7c1.25,8-1.16,9.6-1.82,23.24c-0.2,3.99-2.43,7.32-2.99,11.56c-0.53,4.01,0.64,8.93-0.3,13.07
	c-1.06,4.65-2.43,10.09-4.14,15.7c-2.85,9.39-6.68,19.27-11.68,26.67c-11.5,17.06-29.73,15.73-49.5,16.41
	c-11.85,0.4-16.75-1.97-28-4.39c-10.64-2.28-19.73-8.48-35.87-5.17c-3.06,0.63-2.5,11.75-1.05,14.51
	c11.16,21.19,15.87,26.99,19.09,47.67c1.93,12.4-6.01,19.7-9.9,29.42c-5.31,13.26-23.66,19.39-48.37,17.53
	c-14.8-1.11-25.86-2.94-50.47-12.83c-4.42-1.78-9.02-3.72-13.8-5.82c-2.57-1.14-8.74,3.59-10.22,5.96
	c-8.44,13.58-30.86,38.92-57.97,23.19c-0.59-0.34-1.17-0.69-1.76-1.07c-2.74-1.77-5.52-4-8.28-6.77
	c-4.71-4.71-6.14-10.97-10.8-19.07c-2.03-3.52-7.35-7.41-9.35-11.66c-1.14-2.42-2.27-4.97-3.39-7.63c-1.04-2.46-4.49-2.58-5.67-0.18
	c-13.77,28.02-21.78,58.55-27.97,90.19c-4.27,21.85-15.56,44.51-15.56,67.61c0,2.84,4.67,11.88,4.74,14.7
	c0.72,30.08,6.82,52.45,14.67,80.18c13.14,46.41,55.94,120.61,60.22,126.23c8.61,11.35,22.65,24.17,32.67,34.16
	c54.21,54.13,124.16,85.01,208.32,90.66c7.85,0.53,30.62,7.99,38.61,7.99c17.87,0,32.04-6.22,49.19-8.82
	c28.51-4.29,55.88-12.05,81.7-22.79c9-3.74,15.08-10.4,23.68-14.85c22.39-11.6,53.04-16.97,72.27-31.81
	c12.19-9.41,19.01-21.87,29.7-32.81c17.53-17.92,30.66-40.85,43.63-63.51c9.67-16.88,17.19-29.98,29.35-44.41
	c13.25-15.71,13.09-53.39,16.69-74.1C867.35,533.26,863.95,511.96,863.95,491.44z"/>
<path class="st1" d="M318.6,505.01c0,8.12,3.56,11.24-0.63,17.52c-3.73,5.58-7.54,11.02-13.53,14.11c-5.42,2.8-12.2,1.49-18.71,1.49
	c-10.71,0-13.18-7.53-20.3-14.44c-7.41-7.19-14.14-18.11-14.14-29.24c0-12.26-1.86-13.5,6.9-20.77c3.08-2.54,9.56-10.25,13.33-11.78
	c4.6-1.88,9.56,2.95,14.84,2.95c10.76,0,25.44,1.6,32.58,8.57c2.09,2.05,1.57,8.61,3.18,11.08
	C326.12,490.69,318.6,497.09,318.6,505.01z"/>
<path class="st1" d="M678.76,263.22c0,4.06-2.36,7.4-4.99,10.54c-2.35,2.79-4.74,5.51-8.51,7.05c-3.41,1.4-7.28-3.22-11.37-3.22
	c-6.74,0-10.79,1.74-15.27-1.71c-4.66-3.59-9.61-7.1-9.61-12.66c0-6.13,1.66-10.26,7.16-13.89c1.94-1.27,11.57,0.18,13.93-0.59
	c2.89-0.94,0.46-5.3,3.78-5.3c6.76,0,15.99,2.28,20.48,5.76c1.32,1.02,0.99,4.3,2,5.54C678.89,257.84,678.76,259.26,678.76,263.22z"
	/>
<path class="st1" d="M797.57,422.39c-3.91,4.14-9.12,5.65-14.37,6.75c-4.67,0.97-9.31,1.82-13.99,0.38
	c-4.23-1.3-7.21-5.38-10.69-8.66c-5.71-5.39-1.59-11.58-2.06-18.68c-0.49-7.39-6.41-13.91-1.05-19.58
	c5.9-6.25,11.27-9.13,19.43-8.42c2.86,0.26,9.99,7.53,12.73,8.64c3.35,1.36,5.13-3.13,7.94-0.47c5.73,5.41,11.36,15.11,11.81,22.25
	c0.13,2.1-3.3,5.18-3.64,7.24C802.85,417.01,801.38,418.35,797.57,422.39z"/>
<path class="st1" d="M547.44,369.85c-2.87,3.04-6.51,4.34-10.16,5.35c-3.25,0.89-6.47,1.7-9.6,0.93c-2.84-0.7-4.68-3.37-6.9-5.46
	c-3.65-3.45-4.06-6.98-4.05-11.86c0.02-5.08-0.18-10.23,3.76-14.41c4.34-4.6,8.16-6.84,13.71-6.75c1.95,0.04,6.88-0.76,8.71-0.13
	c2.23,0.78,3.26,3.08,5.06,4.77c3.66,3.46,7.06,9.89,7.02,14.8c-0.01,1.44-2.51,3.73-2.84,5.17
	C551.32,365.89,550.25,366.88,547.44,369.85z"/>
<path class="st1" d="M381.87,734.43c0,4.93-2.14,8.98-4.52,12.79c-2.12,3.39-3.29,9.36-6.7,11.23c-3.09,1.7-7.95-1.77-11.66-1.77
	c-6.1,0-9.41-2.69-13.47-6.88c-4.22-4.36-13.91-9.65-13.91-16.41c0-7.44,6.71-11.42,11.7-15.83c1.75-1.54,5.44-6.22,7.59-7.15
	c2.62-1.14,5.44,0,8.45,0c6.12,0,14.48,2.76,18.54,7c1.19,1.24,6.27,2.76,7.18,4.26C387.36,725.44,381.87,729.62,381.87,734.43z"/>
<path class="st1" d="M728.57,682.17c0,8.12,0.4,16.51-3.78,22.78c-3.73,5.58-11.54,1.87-17.54,4.96
	c-5.42,2.8-8.19,10.63-14.71,10.63c-10.71,0-16.54-4.43-23.66-11.34c-7.41-7.19-7.63-15.9-7.63-27.03c0-12.26-5.01-18.81,3.75-26.07
	c3.08-2.54,9.56-10.25,13.33-11.78c4.6-1.88,9.56,0,14.84,0c10.76,0,25.44,4.55,32.57,11.53c2.09,2.05,1.57,8.61,3.18,11.08
	C732.93,673.12,728.57,674.25,728.57,682.17z"/>
<path class="st1" d="M680.34,533.14c0,4.06-2.51,7.4-5.31,10.54c-2.49,2.79-5.04,5.51-9.05,7.05c-3.62,1.4-8.16,0.74-12.51,0.74
	c-7.16,0-11.06-2.22-15.82-5.67c-4.95-3.59-10.21-7.1-10.21-12.66c0-6.13-1.28-12.05,4.57-15.69c2.06-1.27,9.44-3.33,11.96-4.09
	c3.07-0.94,6.39,0,9.92,0c7.19,0,17.01,2.28,21.78,5.76c1.4,1.02,1.05,4.3,2.12,5.54C680.47,527.77,680.34,529.18,680.34,533.14z"/>
<path class="st1" d="M480.4,513.53c0,2.77-1.46,5.05-3.09,7.19c-1.45,1.9-2.93,3.76-5.27,4.81c-2.11,0.95-4.75,0.51-7.28,0.51
	c-4.17,0-6.43-1.51-9.21-3.87c-2.88-2.45-5.94-4.84-5.94-8.64c0-4.18,1.03-6.99,4.43-9.47c1.2-0.87,3.72-3.49,5.19-4.01
	c1.79-0.64,7.8-0.06,9.85-0.06c4.19,0,5.82,1.61,8.6,3.99c0.81,0.7,0.61,2.94,1.24,3.78C480.48,509.86,480.4,510.83,480.4,513.53z"
	/>
<path class="st1" d="M504.97,681.74c2.47,1.26,3.84,3.59,5,6.01c1.04,2.16,2.02,4.32,1.9,6.87c-0.11,2.31-1.7,4.46-2.85,6.72
	c-1.89,3.72-4.27,5.05-7.62,6.45c-3.49,1.46-7.01,3.1-10.39,1.38c-3.73-1.9-5.77-4.09-6.43-8.25c-0.23-1.46-1.43-4.9-1.23-6.44
	c0.24-1.88,1.69-3.32,2.62-5.15c1.9-3.73,5.87-8.12,9.25-9.51c0.99-0.41,2.89,0.79,3.93,0.61
	C501.74,680.01,502.56,680.51,504.97,681.74z"/>
<path class="st2" d="M529.55,798.67c-172.13,7.71-317.4-113.97-324.47-271.77c-2.36-52.67,10.98-102.73,36.22-146.31
	c27.11,15.72,49.53-9.62,57.97-23.19c1.49-2.37,7.66-7.1,10.22-5.96c4.78,2.1,9.38,4.04,13.8,5.82
	c24.61,9.89,35.67,11.72,50.47,12.83c24.71,1.85,43.06-4.27,48.37-17.53c3.89-9.72,11.83-17.01,9.9-29.42
	c-3.22-20.68-7.94-26.48-19.09-47.67c-1.45-2.75-2.01-13.88,1.05-14.51c16.13-3.31,25.23,2.9,35.87,5.17
	c11.24,2.42,16.14,4.79,28,4.39c19.77-0.67,37.99,0.65,49.5-16.41c5-7.41,8.83-17.28,11.68-26.67c35.15,2.01,68.8,9.41,99.91,21.36
	c13.56,5.2,26.64,11.27,39.15,18.14c49.92,27.35,90.83,67.29,117.35,115.32c4.25,7.69,8.12,15.58,11.6,23.67
	c12.47,28.89,19.93,60.19,21.4,93.05C835.5,656.79,701.69,790.96,529.55,798.67z"/>
</svg>
