<?xml version="1.0" encoding="utf-8"?>
<!-- Generator: Adobe Illustrator 25.1.0, SVG Export Plug-In . SVG Version: 6.00 Build 0)  -->
<svg version="1.1" id="Calque_1" xmlns="http://www.w3.org/2000/svg" xmlns:xlink="http://www.w3.org/1999/xlink" x="0px" y="0px"
	 viewBox="0 0 197.2 197.2" style="enable-background:new 0 0 197.2 197.2;" xml:space="preserve">
<style type="text/css">
	.st0{fill:#89B423;stroke:#000000;stroke-width:6;stroke-miterlimit:10;}
	.st1{fill:#C9DFAB;}
	.st2{fill:none;stroke:#000000;stroke-width:10;stroke-linecap:round;stroke-miterlimit:10;}
</style>
<image style="overflow:visible;" width="1334" height="890" xlink:href="66836B72.jpg"  transform="matrix(0.24 0 0 0.24 -465.5565 22.727)">
</image>
<circle class="st0" cx="-618" cy="132.2" r="109.3"/>
<circle class="st1" cx="-618" cy="132.2" r="45.9"/>
<g>
	<g>
		<line class="st2" x1="-618" y1="198.7" x2="-618" y2="163.5"/>
	</g>
	<g>
		<line class="st2" x1="-665.1" y1="179.2" x2="-640.1" y2="154.3"/>
	</g>
	<g>
		<line class="st2" x1="-684.5" y1="132.2" x2="-649.3" y2="132.2"/>
	</g>
	<g>
		<line class="st2" x1="-665.1" y1="85.1" x2="-640.1" y2="110"/>
	</g>
	<g>
		<line class="st2" x1="-618" y1="65.6" x2="-618" y2="100.9"/>
	</g>
	<g>
		<line class="st2" x1="-571" y1="85.1" x2="-595.9" y2="110"/>
	</g>
	<g>
		<line class="st2" x1="-551.5" y1="132.2" x2="-586.7" y2="132.2"/>
	</g>
	<g>
		<line class="st2" x1="-571" y1="179.2" x2="-595.9" y2="154.3"/>
	</g>
</g>
<g>
	<circle class="st0" cx="98.6" cy="98.6" r="84.4"/>
	<circle class="st1" cx="98.6" cy="98.6" r="35.4"/>
	<g>
		<g>
			<line class="st2" x1="98.6" y1="150" x2="98.6" y2="122.8"/>
		</g>
		<g>
			<line class="st2" x1="62.3" y1="134.9" x2="81.5" y2="115.7"/>
		</g>
		<g>
			<line class="st2" x1="47.2" y1="98.6" x2="74.4" y2="98.6"/>
		</g>
		<g>
			<line class="st2" x1="62.3" y1="62.3" x2="81.5" y2="81.5"/>
		</g>
		<g>
			<line class="st2" x1="98.6" y1="47.2" x2="98.6" y2="74.4"/>
		</g>
		<g>
			<line class="st2" x1="134.9" y1="62.3" x2="115.7" y2="81.5"/>
		</g>
		<g>
			<line class="st2" x1="150" y1="98.6" x2="122.8" y2="98.6"/>
		</g>
		<g>
			<line class="st2" x1="134.9" y1="134.9" x2="115.7" y2="115.7"/>
		</g>
	</g>
</g>
</svg>
